<svg width="232" height="55" viewBox="0 0 232 55" fill="none" xmlns="http://www.w3.org/2000/svg">
<path d="M39.5639 32.175C39.8139 32.875 39.9889 33.675 40.0889 34.575C40.2389 35.425 40.3139 36.3 40.3139 37.2C40.3139 38.1 40.2389 39 40.0889 39.9C39.9889 40.75 39.8389 41.5 39.6389 42.15C38.8389 44.95 37.2389 47.3 34.8389 49.2C32.4389 51.05 29.6889 52.4 26.5889 53.25C23.5389 54.1 20.3639 54.4 17.0639 54.15C13.8139 53.9 10.9139 53.075 8.36387 51.675C6.76387 50.775 5.38887 49.675 4.23887 48.375C3.08887 47.075 2.11387 45.625 1.31387 44.025C1.01387 43.475 0.813867 42.85 0.713867 42.15C0.663867 41.4 0.738867 40.7 0.938867 40.05C1.13887 39.35 1.46387 38.75 1.91387 38.25C2.36387 37.7 2.98887 37.325 3.78887 37.125C4.28887 37.025 4.83887 36.975 5.43887 36.975C6.08887 36.975 6.71387 37.075 7.31387 37.275C7.91387 37.425 8.46387 37.7 8.96387 38.1C9.46387 38.45 9.86387 38.95 10.1639 39.6C10.7139 40.65 11.4889 41.625 12.4889 42.525C13.5389 43.375 14.6389 44.075 15.7889 44.625C17.4389 45.175 19.0889 45.4 20.7389 45.3C22.4389 45.2 23.9639 44.825 25.3139 44.175C26.7139 43.525 27.8389 42.65 28.6889 41.55C29.5389 40.4 29.9639 39.1 29.9639 37.65C29.9639 36.45 29.7889 35.475 29.4389 34.725C29.0889 33.925 28.5889 33.275 27.9389 32.775C27.3389 32.225 26.5889 31.775 25.6889 31.425C24.8389 31.075 23.8889 30.775 22.8389 30.525C21.6389 30.275 20.4139 30.1 19.1639 30C17.9639 29.9 16.7389 29.775 15.4889 29.625C14.2389 29.475 13.0139 29.275 11.8139 29.025C10.6139 28.775 9.43887 28.4 8.28887 27.9C5.98887 26.95 4.23887 25.5 3.03887 23.55C1.83887 21.6 1.11387 19.5 0.863867 17.25C0.663867 15 0.938867 12.775 1.68887 10.575C2.43887 8.325 3.63887 6.4 5.28887 4.8C6.88887 3.35 8.78887 2.325 10.9889 1.725C13.2389 1.075 15.7139 0.699998 18.4139 0.599999C19.9139 0.549997 21.4139 0.599996 22.9139 0.749997C24.4639 0.899998 25.9389 1.15 27.3389 1.5C28.7889 1.85 30.1139 2.3 31.3139 2.85C32.5639 3.4 33.6389 4.05 34.5389 4.8C35.1889 5.3 35.8389 5.975 36.4889 6.825C37.1389 7.625 37.6389 8.5 37.9889 9.45C38.3389 10.35 38.4389 11.225 38.2889 12.075C38.1889 12.925 37.6639 13.65 36.7139 14.25C35.9139 14.75 35.1389 14.975 34.3889 14.925C33.6889 14.825 33.0139 14.6 32.3639 14.25C31.7139 13.85 31.0889 13.4 30.4889 12.9C29.8889 12.4 29.3389 11.95 28.8389 11.55C27.4889 10.55 25.8139 9.875 23.8139 9.525C21.8139 9.175 19.9389 9.1 18.1889 9.3C17.0889 9.45 16.0639 9.7 15.1139 10.05C14.1639 10.4 13.3389 10.875 12.6389 11.475C11.9889 12.075 11.4639 12.825 11.0639 13.725C10.7139 14.575 10.5889 15.55 10.6889 16.65C10.7389 17.45 10.9639 18.125 11.3639 18.675C11.8139 19.225 12.3389 19.675 12.9389 20.025C13.5889 20.375 14.2889 20.65 15.0389 20.85C15.7889 21.05 16.5389 21.2 17.2889 21.3C19.5389 21.6 21.7889 21.825 24.0389 21.975C26.2889 22.125 28.4889 22.625 30.6389 23.475C32.8389 24.325 34.7139 25.475 36.2639 26.925C37.8139 28.375 38.9139 30.125 39.5639 32.175ZM56.6188 9.9L56.4688 21.675H59.4688C61.5188 21.625 63.3438 21.6 64.9438 21.6C66.5438 21.6 68.3188 21.625 70.2688 21.675H70.6438C71.2438 21.675 71.8188 21.7 72.3688 21.75C72.9688 21.75 73.5438 21.75 74.0938 21.75C74.6938 21.8 75.2688 21.9 75.8188 22.05C76.3688 22.15 76.9188 22.275 77.4688 22.425C78.3188 22.725 79.0188 23.175 79.5688 23.775C80.0688 24.425 80.3188 25.15 80.3188 25.95C80.3188 26.2 80.3188 26.5 80.3188 26.85C80.3188 27.15 80.2688 27.425 80.1688 27.675C80.0688 28.225 79.7438 28.725 79.1938 29.175C78.9438 29.525 78.4688 29.775 77.7688 29.925C77.1188 30.125 76.4688 30.25 75.8188 30.3C75.1188 30.45 74.4188 30.525 73.7188 30.525H70.1938L56.3188 30.6L56.1688 45.3L71.0938 45.45H74.6188C75.0188 45.45 75.3938 45.45 75.7438 45.45C76.0938 45.45 76.4188 45.475 76.7188 45.525C77.1188 45.625 77.4688 45.7 77.7688 45.75C78.1188 45.75 78.4438 45.8 78.7438 45.9C79.3438 46.1 79.8438 46.375 80.2438 46.725C80.7438 47.225 81.0688 47.75 81.2187 48.3C81.2688 48.55 81.2938 48.825 81.2938 49.125C81.3438 49.375 81.3438 49.65 81.2938 49.95C81.2938 50.75 81.0438 51.475 80.5438 52.125C79.9438 52.825 79.2438 53.275 78.4438 53.475C77.3938 53.925 76.2438 54.15 74.9938 54.15C74.4438 54.2 73.8688 54.225 73.2688 54.225C72.6688 54.225 72.0938 54.25 71.5438 54.3H71.0938C67.1938 54.4 63.1438 54.4 58.9438 54.3C57.9438 54.3 57.1438 54.275 56.5438 54.225C55.9438 54.225 55.3938 54.225 54.8938 54.225C54.4438 54.225 53.9688 54.225 53.4688 54.225C52.9688 54.225 52.3188 54.225 51.5188 54.225C50.3688 54.325 49.4188 54.125 48.6688 53.625C48.1188 53.275 47.6938 52.8 47.3938 52.2C47.2438 52.05 47.1688 51.9 47.1688 51.75C47.1188 51.65 47.0688 51.575 47.0188 51.525C46.9688 51.475 46.9188 51.4 46.8688 51.3C46.7688 51.05 46.6938 50.8 46.6438 50.55C46.5938 50.25 46.5688 49.975 46.5688 49.725C46.5188 49.475 46.4688 49.225 46.4188 48.975C46.4188 48.725 46.3938 48.475 46.3438 48.225V47.025C46.3438 46.825 46.3438 46.625 46.3438 46.425C46.3938 46.225 46.4188 46.025 46.4188 45.825V39.975L46.5688 29.175V19.2C46.5688 17.4 46.5688 15.8 46.5688 14.4C46.6188 13 46.6688 11.475 46.7188 9.825V9.45C46.7688 8.9 46.7938 8.4 46.7938 7.95C46.8438 7.45 46.8688 6.95 46.8688 6.45C46.9188 5.45 47.1938 4.475 47.6938 3.525C47.8938 3.125 48.0938 2.775 48.2937 2.475C48.5438 2.175 48.8688 1.925 49.2688 1.725C50.0188 1.275 50.7938 1.05 51.5938 1.05C51.9938 1.05 52.2938 1.075 52.4938 1.125V1.05C53.3938 1.05 54.1188 1.05 54.6688 1.05C55.2188 1.05 55.7438 1.05 56.2438 1.05C56.7938 1.05 57.3688 1.05 57.9688 1.05C58.5688 0.999998 59.3938 0.974999 60.4438 0.974999C62.4438 0.924999 64.3438 0.9 66.1438 0.9C67.9438 0.9 69.7938 0.924999 71.6938 0.974999H71.9938C72.5438 1.025 73.1188 1.05 73.7188 1.05C74.3188 1.05 74.8938 1.075 75.4438 1.125C75.9938 1.125 76.5438 1.2 77.0938 1.35C77.6438 1.45 78.1938 1.6 78.7438 1.8C79.5938 2.05 80.2938 2.475 80.8438 3.075C81.2938 3.775 81.5188 4.475 81.5188 5.175C81.5188 5.475 81.5188 5.775 81.5188 6.075C81.5188 6.325 81.4688 6.575 81.3688 6.825C81.3188 7.325 81.0188 7.85 80.4688 8.4C80.2688 8.5 80.0438 8.625 79.7938 8.775C79.5938 8.925 79.3438 9.05 79.0438 9.15C78.7438 9.25 78.4188 9.325 78.0688 9.375C77.7688 9.375 77.4688 9.4 77.1688 9.45C76.7688 9.55 76.3938 9.6 76.0438 9.6C75.7438 9.6 75.3938 9.6 74.9938 9.6H71.6188L56.6188 9.675V9.9ZM122.156 48.3C122.256 48.55 122.306 48.925 122.306 49.425C122.306 49.875 122.306 50.25 122.306 50.55C122.306 50.95 122.231 51.325 122.081 51.675C121.931 52.025 121.731 52.35 121.481 52.65C121.031 53.25 120.381 53.7 119.531 54C118.331 54.4 117.206 54.6 116.156 54.6C115.606 54.65 115.031 54.675 114.431 54.675C113.831 54.675 113.231 54.725 112.631 54.825H112.331C108.481 54.875 104.506 54.875 100.406 54.825C99.4059 54.775 98.2809 54.775 97.0309 54.825C95.7809 54.925 94.5559 54.9 93.3559 54.75C92.1559 54.65 91.0559 54.375 90.0559 53.925C89.1059 53.425 88.4309 52.65 88.0309 51.6C87.9309 51.35 87.8559 51.125 87.8059 50.925C87.7559 50.675 87.7309 50.425 87.7309 50.175C87.5309 48.475 87.4559 46.8 87.5059 45.15C87.5559 43.5 87.5809 41.875 87.5809 40.275L87.7309 29.4V19.35C87.7309 17.55 87.7309 15.95 87.7309 14.55C87.7809 13.15 87.8309 11.6 87.8809 9.9V9.525C87.9309 9.025 87.9559 8.525 87.9559 8.025C88.0059 7.525 88.0309 7.025 88.0309 6.525C88.1309 5.375 88.4059 4.4 88.8559 3.6C89.1559 2.85 89.6809 2.25 90.4309 1.8C91.0809 1.35 91.8559 1.125 92.7559 1.125C93.1059 1.125 93.4309 1.15 93.7309 1.2C94.0809 1.2 94.4059 1.225 94.7059 1.275C95.0059 1.325 95.2809 1.425 95.5309 1.575C95.8309 1.725 96.1309 1.925 96.4309 2.175C96.7309 2.525 97.0059 2.95 97.2559 3.45C97.4559 4 97.5809 4.55 97.6309 5.1C97.6809 5.45 97.7309 5.775 97.7809 6.075C97.8309 6.375 97.8559 6.675 97.8559 6.975C97.7559 7.275 97.7059 7.575 97.7059 7.875C97.7059 8.175 97.7059 8.45 97.7059 8.7V10.05L97.4059 45.375L112.256 45.525H115.781C116.081 45.525 116.406 45.55 116.756 45.6C117.106 45.6 117.456 45.625 117.806 45.675C118.206 45.725 118.556 45.775 118.856 45.825C119.156 45.875 119.456 45.95 119.756 46.05C120.306 46.2 120.756 46.45 121.106 46.8C121.656 47.3 122.006 47.8 122.156 48.3ZM162.952 48.3C163.052 48.55 163.102 48.925 163.102 49.425C163.102 49.875 163.102 50.25 163.102 50.55C163.102 50.95 163.027 51.325 162.877 51.675C162.727 52.025 162.527 52.35 162.277 52.65C161.827 53.25 161.177 53.7 160.327 54C159.127 54.4 158.002 54.6 156.952 54.6C156.402 54.65 155.827 54.675 155.227 54.675C154.627 54.675 154.027 54.725 153.427 54.825H153.127C149.277 54.875 145.302 54.875 141.202 54.825C140.202 54.775 139.077 54.775 137.827 54.825C136.577 54.925 135.352 54.9 134.152 54.75C132.952 54.65 131.852 54.375 130.852 53.925C129.902 53.425 129.227 52.65 128.827 51.6C128.727 51.35 128.652 51.125 128.602 50.925C128.552 50.675 128.527 50.425 128.527 50.175C128.327 48.475 128.252 46.8 128.302 45.15C128.352 43.5 128.377 41.875 128.377 40.275L128.527 29.4V19.35C128.527 17.55 128.527 15.95 128.527 14.55C128.577 13.15 128.627 11.6 128.677 9.9V9.525C128.727 9.025 128.752 8.525 128.752 8.025C128.802 7.525 128.827 7.025 128.827 6.525C128.927 5.375 129.202 4.4 129.652 3.6C129.952 2.85 130.477 2.25 131.227 1.8C131.877 1.35 132.652 1.125 133.552 1.125C133.902 1.125 134.227 1.15 134.527 1.2C134.877 1.2 135.202 1.225 135.502 1.275C135.802 1.325 136.077 1.425 136.327 1.575C136.627 1.725 136.927 1.925 137.227 2.175C137.527 2.525 137.802 2.95 138.052 3.45C138.252 4 138.377 4.55 138.427 5.1C138.477 5.45 138.527 5.775 138.577 6.075C138.627 6.375 138.652 6.675 138.652 6.975C138.552 7.275 138.502 7.575 138.502 7.875C138.502 8.175 138.502 8.45 138.502 8.7V10.05L138.202 45.375L153.052 45.525H156.577C156.877 45.525 157.202 45.55 157.552 45.6C157.902 45.6 158.252 45.625 158.602 45.675C159.002 45.725 159.352 45.775 159.652 45.825C159.952 45.875 160.252 45.95 160.552 46.05C161.102 46.2 161.552 46.45 161.902 46.8C162.452 47.3 162.802 47.8 162.952 48.3ZM171.423 46.05L171.498 40.125L171.573 29.1C171.623 27.5 171.648 25.85 171.648 24.15C171.648 22.45 171.648 20.7 171.648 18.9C171.648 17.1 171.648 15.5 171.648 14.1C171.648 12.7 171.698 11.125 171.798 9.375V9.075C171.848 8.575 171.873 8.075 171.873 7.575C171.923 7.025 171.948 6.475 171.948 5.925C171.998 5.025 172.273 4.05 172.773 3C173.123 2.3 173.648 1.7 174.348 1.2C175.148 0.799998 175.923 0.599999 176.673 0.599999C177.073 0.599999 177.423 0.624999 177.723 0.674998C178.073 0.674998 178.398 0.699998 178.698 0.749997C179.348 0.849999 179.923 1.15 180.423 1.65C180.723 1.9 180.998 2.3 181.248 2.85C181.348 3.15 181.423 3.45 181.473 3.75C181.573 4 181.648 4.275 181.698 4.575C181.748 4.925 181.773 5.25 181.773 5.55C181.823 5.85 181.848 6.15 181.848 6.45C181.848 6.8 181.823 7.125 181.773 7.425C181.773 7.675 181.773 7.95 181.773 8.25V9.525L181.323 48.45V49.2C181.323 49.35 181.298 49.55 181.248 49.8C181.248 50 181.223 50.25 181.173 50.55C181.073 50.8 180.973 51.075 180.873 51.375C180.823 51.625 180.748 51.9 180.648 52.2C180.498 52.45 180.323 52.7 180.123 52.95C179.973 53.15 179.773 53.35 179.523 53.55C179.123 53.95 178.473 54.225 177.573 54.375C176.223 54.675 174.948 54.55 173.748 54C173.148 53.6 172.723 53.1 172.473 52.5C172.323 52.35 172.248 52.2 172.248 52.05C172.198 51.95 172.148 51.875 172.098 51.825C172.048 51.775 171.998 51.7 171.948 51.6C171.848 51.35 171.773 51.1 171.723 50.85C171.673 50.55 171.648 50.25 171.648 49.95C171.598 49.7 171.548 49.45 171.498 49.2C171.498 48.95 171.473 48.7 171.423 48.45C171.373 48.05 171.373 47.625 171.423 47.175V46.05ZM230.543 47.1C231.093 48.1 231.318 48.975 231.218 49.725C231.168 50.475 231.093 51.1 230.993 51.6C230.843 52.15 230.468 52.625 229.868 53.025C229.318 53.375 228.693 53.65 227.993 53.85C227.093 54.1 226.343 54.15 225.743 54C224.993 53.85 224.368 53.6 223.868 53.25C223.568 53 223.293 52.775 223.043 52.575C222.793 52.325 222.543 52.1 222.293 51.9C222.043 51.65 221.818 51.425 221.618 51.225C221.418 51.025 221.268 50.825 221.168 50.625C221.068 50.425 220.968 50.3 220.868 50.25C220.818 50.15 220.768 50.075 220.718 50.025L210.743 35.625L200.843 50.025C200.793 50.075 200.718 50.15 200.618 50.25C200.568 50.3 200.468 50.425 200.318 50.625C200.218 50.825 200.068 51.025 199.868 51.225C199.718 51.425 199.543 51.65 199.343 51.9C199.093 52.1 198.818 52.325 198.518 52.575C198.218 52.775 197.943 53 197.693 53.25C197.393 53.45 197.068 53.6 196.718 53.7C196.418 53.8 196.118 53.9 195.818 54C195.168 54.15 194.468 54.1 193.718 53.85C192.168 53.5 191.093 52.75 190.493 51.6C190.193 51 190.068 50.375 190.118 49.725C190.168 49.025 190.318 48.325 190.568 47.625C190.868 46.925 191.193 46.25 191.543 45.6C191.943 44.95 192.343 44.325 192.743 43.725C192.943 43.475 193.118 43.25 193.268 43.05C193.468 42.85 193.668 42.625 193.868 42.375C194.518 41.525 195.143 40.675 195.743 39.825C196.343 38.925 196.993 37.975 197.693 36.975L204.668 26.85L194.393 12L193.493 10.725C193.293 10.425 193.093 10.15 192.893 9.9C192.693 9.65 192.493 9.35 192.293 9C192.093 8.75 191.893 8.475 191.693 8.175C191.493 7.875 191.318 7.525 191.168 7.125C191.018 6.825 190.868 6.55 190.718 6.3C190.618 6 190.518 5.65 190.418 5.25C190.268 4.65 190.218 4.1 190.268 3.6C190.418 2.95 190.743 2.4 191.243 1.95C191.443 1.7 191.668 1.5 191.918 1.35C192.218 1.2 192.493 1.05 192.743 0.9C193.243 0.699999 193.693 0.549998 194.093 0.449997C194.493 0.349998 194.918 0.299998 195.368 0.299998C196.268 0.349998 197.118 0.674998 197.918 1.275C198.918 1.925 199.818 2.725 200.618 3.675C200.968 4.225 201.318 4.75 201.668 5.25C202.018 5.7 202.393 6.175 202.793 6.675L202.868 6.975C204.118 8.625 205.243 10.225 206.243 11.775C207.293 13.275 208.443 14.875 209.693 16.575C209.893 16.825 210.068 17.075 210.218 17.325C210.368 17.575 210.543 17.825 210.743 18.075C210.943 17.825 211.118 17.575 211.268 17.325C211.418 17.075 211.593 16.825 211.793 16.575C212.943 14.875 214.043 13.275 215.093 11.775C216.193 10.225 217.343 8.625 218.543 6.975L218.693 6.675C219.093 6.175 219.468 5.7 219.818 5.25C220.218 4.75 220.593 4.225 220.943 3.675C221.743 2.725 222.643 1.925 223.643 1.275C224.393 0.674998 225.243 0.349998 226.193 0.299998C226.993 0.299998 227.843 0.499999 228.743 0.9C229.343 1.25 229.793 1.6 230.093 1.95C230.693 2.4 231.068 2.95 231.218 3.6C231.268 4.1 231.218 4.65 231.068 5.25C230.968 5.65 230.843 6 230.693 6.3C230.593 6.55 230.418 6.825 230.168 7.125C229.868 7.875 229.543 8.5 229.193 9C228.993 9.35 228.793 9.65 228.593 9.9C228.393 10.15 228.218 10.425 228.068 10.725L227.168 12L216.818 26.85L223.793 36.975L227.843 42.675C228.293 43.425 228.743 44.15 229.193 44.85C229.643 45.55 230.093 46.3 230.543 47.1Z" fill="#1B59F8"/>
</svg>
